<svg width="76" height="71" viewBox="0 0 76 71" fill="none" xmlns="http://www.w3.org/2000/svg">
<path d="M6.38464 30.353V47.4643C6.38464 57.1455 6.38464 61.9826 9.45763 64.9896C12.5376 68 17.4831 68 27.3846 68H48.3846C58.2825 68 63.2315 68 66.308 64.9896C69.3845 61.9826 69.3845 57.1421 69.3845 47.4643V30.353M48.3846 52.5783C45.9906 54.6547 42.1791 55.9992 37.8846 55.9992C33.5901 55.9992 29.7786 54.6547 27.3846 52.5783M31.3641 23.244C30.3771 26.7299 26.7861 32.7405 19.9681 33.6094C13.9481 34.3791 9.37713 31.81 8.21163 30.7358C6.92714 29.8635 3.99414 27.0754 3.27664 25.3376C2.55914 23.593 3.39564 19.8197 3.99414 18.2803L6.38464 11.5138C6.96914 9.81358 8.33763 5.79402 9.73763 4.4325C11.1376 3.07099 13.9726 3.01283 15.1416 3.01283H39.6626C45.9731 3.10177 59.7735 2.9581 62.5 3.01283C65.23 3.06756 66.868 5.30483 67.3475 6.26269C71.418 15.8959 73 21.4173 73 23.764C72.468 26.275 70.27 31.0026 62.5 33.086C54.4255 35.248 49.8476 31.0403 48.4126 29.4256M28.0426 29.4256C29.1801 30.7905 32.7466 33.5375 37.9126 33.6059C43.0821 33.6744 47.5446 30.1508 49.13 28.3822C49.578 27.8588 50.5476 26.3092 51.5555 23.2406" stroke="#F15959" stroke-width="5.46341" stroke-linecap="round" stroke-linejoin="round"/>
</svg>
