<svg
                style="height: 40px; fill: #4c48c8"
                xmlns="http://www.w3.org/2000/svg"
                viewBox="0 0 32 32"
              >
                
                <g id="shopping_basket" data-name="shopping basket">
                  <path
                    class="cls-1"
                    d="M28.52 10 22.8 2.4a1 1 0 1 0-1.6 1.2L26 10H12a1 1 0 0 0 0 2h16v2H4v-2h4a1 1 0 0 0 0-2H6l4.8-6.4a1 1 0 0 0-1.6-1.2L3.48 10A1.72 1.72 0 0 0 2 11.73v2.54a1.73 1.73 0 0 0 1.12 1.61L4.56 26a4.69 4.69 0 0 0 4.62 4h13.64a4.69 4.69 0 0 0 4.62-4l1-6.85a1 1 0 0 0-2-.28l-1 6.85A2.69 2.69 0 0 1 22.82 28H9.18a2.69 2.69 0 0 1-2.64-2.29L5.15 16h23.12A1.74 1.74 0 0 0 30 14.27v-2.54A1.72 1.72 0 0 0 28.52 10z"
                  />
                  <path
                    class="cls-1"
                    d="M9.76 22.76a1.12 1.12 0 0 1-.35 0h-.19a.53.53 0 0 1-.15-.05l-.14-.08a.28.28 0 0 0-.12-.08.32.32 0 0 0-.16 0H7.43a.12.12 0 0 0-.1 0 .14.14 0 0 0 0 .1 1.26 1.26 0 0 0 .25.67 1.6 1.6 0 0 0 .7.51 3.07 3.07 0 0 0 1.18.19 3.13 3.13 0 0 0 1.1-.18 1.8 1.8 0 0 0 .77-.53 1.26 1.26 0 0 0 .28-.81 1.31 1.31 0 0 0-.18-.71 1.26 1.26 0 0 0-.57-.45 3.52 3.52 0 0 0-1-.25 4.05 4.05 0 0 1-.44-.08.41.41 0 0 1-.31-.01.13.13 0 0 1 0-.11.15.15 0 0 1 .07-.13.48.48 0 0 1 .24 0 .67.67 0 0 1 .22 0 .48.48 0 0 1 .12.08l.11.08h1.44a.11.11 0 0 0 .09 0 .13.13 0 0 0 0-.1.94.94 0 0 0-.14-.45 1.56 1.56 0 0 0-.39-.43 2 2 0 0 0-.63-.33 2.55 2.55 0 0 0-.86-.13 2.57 2.57 0 0 0-1 .19 1.66 1.66 0 0 0-.69.52 1.32 1.32 0 0 0-.25.78 1.22 1.22 0 0 0 .21.72 1.35 1.35 0 0 0 .58.46 3.4 3.4 0 0 0 .88.24c.22 0 .39.05.51.08a1 1 0 0 1 .25.09.17.17 0 0 1 .08.13c-.05-.01-.1.03-.19.07zM14.94 19.55a.27.27 0 0 0-.2-.07h-1.41a.27.27 0 0 0-.2.07.42.42 0 0 0-.09.14l-1.44 4.12v.05a.14.14 0 0 0 .14.14h1.19a.26.26 0 0 0 .18-.05.59.59 0 0 0 .08-.11l.15-.43h1.39l.16.43A.28.28 0 0 0 15 24a.3.3 0 0 0 .18.05h1.19a.12.12 0 0 0 .1 0 .14.14 0 0 0 .05-.1v-.05L15 19.69a.42.42 0 0 0-.06-.14zm-1.27 2.6L14 21l.37 1.2zM18.42 19.53a.13.13 0 0 0-.12-.05H17a.17.17 0 0 0-.18.17v4.18a.21.21 0 0 0 .05.12.21.21 0 0 0 .13.05h3.25a.21.21 0 0 0 .13-.05.21.21 0 0 0 .05-.12v-1a.17.17 0 0 0-.05-.12.18.18 0 0 0-.13-.06h-1.78v-3a.13.13 0 0 0-.05-.12zM24.37 20.74a.16.16 0 0 0 .12-.06.17.17 0 0 0 .05-.12v-.91a.17.17 0 0 0-.05-.12.15.15 0 0 0-.12-.05h-3.32a.17.17 0 0 0-.17.17v4.18a.16.16 0 0 0 .05.12.17.17 0 0 0 .12.05h3.37a.17.17 0 0 0 .12-.05.16.16 0 0 0 .05-.12v-.92a.16.16 0 0 0-.05-.12.17.17 0 0 0-.12-.05h-2v-.41h1.79a.17.17 0 0 0 .18-.17v-.84a.17.17 0 0 0 0-.12.18.18 0 0 0-.13-.06h-1.83v-.4z"
                  />
                </g>
              </svg>