<svg width="140" height="58" viewBox="0 0 140 58" fill="none" xmlns="http://www.w3.org/2000/svg">
<path fill-rule="evenodd" clip-rule="evenodd" d="M29.824 52.8322H88.792C89.1256 52.8322 89.4509 52.7962 89.764 52.7278C90.0771 52.7962 90.4024 52.8322 90.736 52.8322H124.432C126.937 52.8322 128.968 50.8013 128.968 48.2962C128.968 45.791 126.937 43.7602 124.432 43.7602H120.544C118.039 43.7602 116.008 41.7293 116.008 39.2242C116.008 36.719 118.039 34.6882 120.544 34.6882H132.856C135.361 34.6882 137.392 32.6573 137.392 30.1522C137.392 27.647 135.361 25.6162 132.856 25.6162H118.6C121.105 25.6162 123.136 23.5853 123.136 21.0802C123.136 18.575 121.105 16.5442 118.6 16.5442H77.128C79.6332 16.5442 81.664 14.5133 81.664 12.0082C81.664 9.503 79.6332 7.47217 77.128 7.47217H40.192C37.6868 7.47217 35.656 9.503 35.656 12.0082C35.656 14.5133 37.6868 16.5442 40.192 16.5442H14.272C11.7668 16.5442 9.73599 18.575 9.73599 21.0802C9.73599 23.5853 11.7668 25.6162 14.272 25.6162H30.472C32.9772 25.6162 35.008 27.647 35.008 30.1522C35.008 32.6573 32.9772 34.6882 30.472 34.6882H4.55199C2.04683 34.6882 0.0159912 36.719 0.0159912 39.2242C0.0159912 41.7293 2.04683 43.7602 4.55199 43.7602H29.824C27.3188 43.7602 25.288 45.791 25.288 48.2962C25.288 50.8013 27.3188 52.8322 29.824 52.8322ZM135.448 52.832C137.953 52.832 139.984 50.8012 139.984 48.296C139.984 45.7908 137.953 43.76 135.448 43.76C132.943 43.76 130.912 45.7908 130.912 48.296C130.912 50.8012 132.943 52.832 135.448 52.832Z" fill="#F3F7FF"/>
<path fill-rule="evenodd" clip-rule="evenodd" d="M77.1912 39.1944C77.1912 42.7894 73.9716 46.3518 70 46.3518C66.0284 46.3518 62.8088 42.7894 62.8088 39.1944C62.8088 39.0779 62.8121 38.3141 62.8188 38.1992H49.264L54.5525 25.3407C54.7805 24.7305 55.4129 24.3198 56.1246 24.3198H83.8754C84.587 24.3198 85.2194 24.7305 85.4474 25.3407L90.736 38.1992H77.1811C77.1878 38.3141 77.1912 39.0779 77.1912 39.1944Z" fill="#E8F0FE"/>
<path fill-rule="evenodd" clip-rule="evenodd" d="M44.242 38.2598V55.4238C44.242 56.0501 44.7497 56.5578 45.376 56.5578H94.624C95.2503 56.5578 95.758 56.0501 95.758 55.4238V38.2598L89.6055 20.0685C89.4497 19.6079 89.0176 19.2979 88.5313 19.2979H51.4687C50.9824 19.2979 50.5503 19.6079 50.3945 20.0685L44.242 38.2598Z" stroke="#1F64E7" stroke-width="1.62"/>
<path d="M47.6918 37.9277H49.264M52.504 37.9277C55.0549 37.9277 57.8078 37.9277 60.7627 37.9277C61.9785 37.9277 61.9785 38.7822 61.9785 39.2237C61.9785 43.5183 65.5401 46.9997 69.9334 46.9997C74.3268 46.9997 77.8883 43.5183 77.8883 39.2237C77.8883 38.7822 77.8883 37.9277 79.1042 37.9277H95.272" stroke="#1F64E7" stroke-width="1.62" stroke-linecap="round" stroke-linejoin="round"/>
<path d="M86.2646 3.77987L79.072 11.8495M69.4166 0.991699V11.8495V0.991699ZM52.504 3.77987L59.6966 11.8495L52.504 3.77987Z" stroke="#75A4FE" stroke-width="1.62" stroke-linecap="round" stroke-linejoin="round"/>
</svg>
