<svg width="183" height="138" viewBox="0 0 183 138" fill="none" xmlns="http://www.w3.org/2000/svg">
<rect x="47" width="106" height="99" rx="17" fill="#FFF5F5"/>
<path d="M68.3846 44.353V61.4643C68.3846 71.1455 68.3846 75.9826 71.4576 78.9896C74.5376 82 79.4831 82 89.3846 82H110.385C120.283 82 125.232 82 128.308 78.9896C131.385 75.9826 131.385 71.1421 131.385 61.4643V44.353M110.385 66.5783C107.991 68.6547 104.179 69.9992 99.8846 69.9992C95.5901 69.9992 91.7786 68.6547 89.3846 66.5783M93.3641 37.244C92.3771 40.7299 88.7861 46.7405 81.9681 47.6094C75.9481 48.3791 71.3771 45.81 70.2116 44.7358C68.9271 43.8635 65.9941 41.0754 65.2766 39.3376C64.5591 37.593 65.3956 33.8197 65.9941 32.2803L68.3846 25.5138C68.9691 23.8136 70.3376 19.794 71.7376 18.4325C73.1376 17.071 75.9726 17.0128 77.1416 17.0128H101.663C107.973 17.1018 121.774 16.9581 124.5 17.0128C127.23 17.0676 128.868 19.3048 129.348 20.2627C133.418 29.8959 135 35.4173 135 37.764C134.468 40.275 132.27 45.0026 124.5 47.086C116.426 49.248 111.848 45.0403 110.413 43.4256M90.0426 43.4256C91.1801 44.7905 94.7466 47.5375 99.9126 47.6059C105.082 47.6744 109.545 44.1508 111.13 42.3822C111.578 41.8588 112.548 40.3092 113.556 37.2406" stroke="#F15959" stroke-width="5.46341" stroke-linecap="round" stroke-linejoin="round"/>
<path d="M11.3847 130.408C9.32204 130.408 7.49738 129.921 5.91071 128.946C4.32404 127.949 3.08871 126.543 2.20471 124.73C1.32071 122.894 0.878711 120.718 0.878711 118.202C0.878711 115.777 1.32071 113.635 2.20471 111.776C3.11138 109.895 4.38071 108.433 6.01271 107.39C7.66738 106.325 9.59404 105.792 11.7927 105.792C12.926 105.792 13.9574 105.905 14.8867 106.132C15.816 106.336 16.6887 106.631 17.5047 107.016L16.5187 109.736C15.816 109.396 15.0907 109.124 14.3427 108.92C13.6174 108.716 12.756 108.614 11.7587 108.614C10.308 108.614 9.00471 108.988 7.84871 109.736C6.71538 110.484 5.82004 111.561 5.16271 112.966C4.50538 114.371 4.17671 116.071 4.17671 118.066C4.17671 119.97 4.49404 121.636 5.12871 123.064C5.78604 124.492 6.68138 125.603 7.81471 126.396C8.97071 127.189 10.2854 127.586 11.7587 127.586C12.8694 127.586 13.8327 127.45 14.6487 127.178C15.4647 126.906 16.258 126.555 17.0287 126.124L18.0147 128.81C17.176 129.263 16.2127 129.649 15.1247 129.966C14.0594 130.261 12.8127 130.408 11.3847 130.408ZM27.8229 130.408C26.3496 130.408 25.0122 130.034 23.8109 129.286C22.6096 128.538 21.6462 127.484 20.9209 126.124C20.2182 124.741 19.8669 123.121 19.8669 121.262C19.8669 119.494 20.2182 117.907 20.9209 116.502C21.6462 115.097 22.6322 113.986 23.8789 113.17C25.1482 112.331 26.5989 111.912 28.2309 111.912C29.2509 111.912 30.1689 112.093 30.9849 112.456C31.8236 112.796 32.5489 113.227 33.1609 113.748V112.32H35.9489V125.716C35.9489 126.577 36.1529 127.144 36.5609 127.416C36.9916 127.665 37.4562 127.79 37.9549 127.79L37.3089 130.17C35.1329 130.17 33.8182 129.286 33.3649 127.518C32.8436 128.243 32.1296 128.912 31.2229 129.524C30.3389 130.113 29.2056 130.408 27.8229 130.408ZM28.5029 127.688C29.3642 127.688 30.1802 127.484 30.9509 127.076C31.7216 126.645 32.3676 126.113 32.8889 125.478V115.992C32.2769 115.561 31.5969 115.221 30.8489 114.972C30.1236 114.7 29.3529 114.564 28.5369 114.564C27.4489 114.564 26.4856 114.847 25.6469 115.414C24.8309 115.958 24.1849 116.729 23.7089 117.726C23.2329 118.701 22.9949 119.845 22.9949 121.16C22.9949 122.429 23.2329 123.563 23.7089 124.56C24.1849 125.535 24.8422 126.305 25.6809 126.872C26.5196 127.416 27.4602 127.688 28.5029 127.688ZM42.0413 130V112.32H44.9993V115.278C45.634 114.326 46.4386 113.533 47.4133 112.898C48.4106 112.241 49.5893 111.912 50.9493 111.912C52.944 111.912 54.4286 112.513 55.4033 113.714C56.4006 114.915 56.8993 116.502 56.8993 118.474V130H53.8393V118.814C53.8393 117.545 53.5333 116.525 52.9213 115.754C52.332 114.983 51.5046 114.598 50.4393 114.598C49.3966 114.598 48.4106 114.972 47.4813 115.72C46.552 116.445 45.7586 117.307 45.1013 118.304V130H42.0413ZM68.3504 130.408C66.6504 130.408 65.3017 129.853 64.3044 128.742C63.3297 127.609 62.8424 125.999 62.8424 123.914V115.618H59.7824V112.966H62.9104L63.5564 107.39H65.9024V112.966H70.7984V115.618H65.9024V124.152C65.9024 125.467 66.1744 126.385 66.7184 126.906C67.285 127.427 67.9537 127.688 68.7244 127.688C69.291 127.688 69.8237 127.597 70.3224 127.416C70.8437 127.235 71.3197 127.019 71.7504 126.77L72.6004 129.218C72.1471 129.49 71.535 129.751 70.7644 130C69.9937 130.272 69.1891 130.408 68.3504 130.408ZM75.6761 130V112.32H78.7361V130H75.6761ZM77.2061 109.294C76.6167 109.294 76.1067 109.079 75.6761 108.648C75.2681 108.217 75.0641 107.719 75.0641 107.152C75.0641 106.495 75.2567 105.973 75.6421 105.588C76.0274 105.203 76.5487 105.01 77.2061 105.01C77.7954 105.01 78.2941 105.225 78.7021 105.656C79.1327 106.064 79.3481 106.563 79.3481 107.152C79.3481 107.787 79.1554 108.308 78.7701 108.716C78.3847 109.101 77.8634 109.294 77.2061 109.294ZM84.1761 130V112.32H87.1341V115.278C87.7687 114.326 88.5734 113.533 89.5481 112.898C90.5454 112.241 91.7241 111.912 93.0841 111.912C95.0787 111.912 96.5634 112.513 97.5381 113.714C98.5354 114.915 99.0341 116.502 99.0341 118.474V130H95.9741V118.814C95.9741 117.545 95.6681 116.525 95.0561 115.754C94.4667 114.983 93.6394 114.598 92.5741 114.598C91.5314 114.598 90.5454 114.972 89.6161 115.72C88.6867 116.445 87.8934 117.307 87.2361 118.304V130H84.1761ZM111.369 130.408C108.83 130.408 106.813 129.603 105.317 127.994C103.844 126.362 103.107 124.084 103.107 121.16C103.107 119.392 103.436 117.817 104.093 116.434C104.773 115.029 105.714 113.929 106.915 113.136C108.116 112.32 109.51 111.912 111.097 111.912C112.797 111.912 114.202 112.286 115.313 113.034C116.446 113.759 117.296 114.745 117.863 115.992C118.43 117.239 118.713 118.61 118.713 120.106C118.713 120.899 118.679 121.67 118.611 122.418H106.235C106.439 124.073 107.017 125.365 107.969 126.294C108.921 127.223 110.179 127.688 111.743 127.688C112.763 127.688 113.681 127.586 114.497 127.382C115.313 127.155 116.095 126.872 116.843 126.532L117.557 129.15C116.741 129.513 115.823 129.807 114.803 130.034C113.783 130.283 112.638 130.408 111.369 130.408ZM106.201 119.936H115.891C115.891 118.213 115.46 116.887 114.599 115.958C113.738 115.029 112.548 114.564 111.029 114.564C109.714 114.564 108.626 115.029 107.765 115.958C106.904 116.865 106.382 118.191 106.201 119.936ZM139.485 130.34L136.833 123.54H125.817L123.165 130.272L120.411 129.15L129.727 106.2H133.263L142.443 129.15L139.485 130.34ZM126.837 120.82H135.779L131.325 109.396L126.837 120.82ZM146.148 137.48V116.842C146.148 116.071 145.956 115.527 145.57 115.21C145.208 114.87 144.732 114.7 144.142 114.7L144.788 112.32C146.874 112.32 148.177 113.147 148.698 114.802C148.925 114.462 149.288 114.065 149.786 113.612C150.308 113.159 150.942 112.762 151.69 112.422C152.461 112.082 153.334 111.912 154.308 111.912C155.668 111.912 156.938 112.275 158.116 113C159.318 113.703 160.281 114.734 161.006 116.094C161.732 117.431 162.094 119.063 162.094 120.99C162.094 122.871 161.732 124.526 161.006 125.954C160.281 127.359 159.329 128.459 158.15 129.252C156.994 130.023 155.736 130.408 154.376 130.408C153.334 130.408 152.359 130.204 151.452 129.796C150.546 129.365 149.798 128.878 149.208 128.334V137.48H146.148ZM153.764 127.688C155.306 127.688 156.552 127.087 157.504 125.886C158.479 124.662 158.966 123.064 158.966 121.092C158.966 119.732 158.717 118.565 158.218 117.59C157.742 116.615 157.096 115.867 156.28 115.346C155.487 114.825 154.603 114.564 153.628 114.564C152.654 114.564 151.77 114.813 150.976 115.312C150.206 115.788 149.616 116.309 149.208 116.876V125.58C149.798 126.192 150.478 126.702 151.248 127.11C152.019 127.495 152.858 127.688 153.764 127.688ZM166.336 137.48V116.842C166.336 116.071 166.143 115.527 165.758 115.21C165.395 114.87 164.919 114.7 164.33 114.7L164.976 112.32C167.061 112.32 168.364 113.147 168.886 114.802C169.112 114.462 169.475 114.065 169.974 113.612C170.495 113.159 171.13 112.762 171.878 112.422C172.648 112.082 173.521 111.912 174.496 111.912C175.856 111.912 177.125 112.275 178.304 113C179.505 113.703 180.468 114.734 181.194 116.094C181.919 117.431 182.282 119.063 182.282 120.99C182.282 122.871 181.919 124.526 181.194 125.954C180.468 127.359 179.516 128.459 178.338 129.252C177.182 130.023 175.924 130.408 174.564 130.408C173.521 130.408 172.546 130.204 171.64 129.796C170.733 129.365 169.985 128.878 169.396 128.334V137.48H166.336ZM173.952 127.688C175.493 127.688 176.74 127.087 177.692 125.886C178.666 124.662 179.154 123.064 179.154 121.092C179.154 119.732 178.904 118.565 178.406 117.59C177.93 116.615 177.284 115.867 176.468 115.346C175.674 114.825 174.79 114.564 173.816 114.564C172.841 114.564 171.957 114.813 171.164 115.312C170.393 115.788 169.804 116.309 169.396 116.876V125.58C169.985 126.192 170.665 126.702 171.436 127.11C172.206 127.495 173.045 127.688 173.952 127.688Z" fill="#12122C"/>
</svg>
