<svg width="37" height="46" viewBox="0 0 37 46" fill="none" xmlns="http://www.w3.org/2000/svg">
<path d="M0.5 42.1679C0.5 44.2827 2.20621 46 4.29534 46H31.0663C33.1554 46 34.852 44.2827 34.852 42.1679V37.2907C35.7972 37.0159 36.4952 36.1425 36.4952 35.0925V27.232C36.4952 26.1918 35.7972 25.3135 34.852 25.0338V19.1703C34.852 17.085 33.1942 15.3922 31.139 15.3431V14.9506C31.139 12.4384 29.1177 10.3874 26.6311 10.3874H25.6762C25.6762 10.2746 25.6908 10.1568 25.6908 10.0439C25.6956 4.49941 21.2459 0 15.7783 0C10.3107 0 5.84159 4.50923 5.84159 10.0439C5.84159 10.1568 5.85613 10.2746 5.85613 10.3874H4.29049C2.10926 10.3874 0.563013 11.776 0.504847 13.7779V13.8908C0.548472 15.2499 0.529083 31.0101 0.504847 38.8068V42.163L0.5 42.1679ZM34.0764 26.4666H34.2267C34.6435 26.4666 34.9828 26.81 34.9828 27.232V35.0925C34.9828 35.5145 34.6435 35.8579 34.2267 35.8579H21.3041C20.0535 35.8579 19.0308 34.8226 19.0308 33.5567V28.7629C19.0308 27.497 20.0535 26.4617 21.3041 26.4617H34.091H34.0764V26.4666ZM31.0663 16.8691C32.3169 16.8691 33.3396 17.8946 33.3396 19.1703V24.9357H21.2992C19.2101 24.9357 17.5136 26.653 17.5136 28.7678V33.5616C17.5136 35.6764 19.2101 37.3937 21.2992 37.3937H33.3396V42.1679C33.3396 43.4338 32.3266 44.4691 31.0663 44.4691H7.55265L7.38784 16.8789H31.0615L31.0712 16.8691H31.0663ZM25.5066 11.9232H26.6263C28.2792 11.9232 29.617 13.2823 29.617 14.9506V15.3333H24.1785C24.8231 14.2833 25.2788 13.1351 25.5018 11.9232H25.5066ZM15.7686 1.53579C20.4025 1.53579 24.1736 5.35317 24.1736 10.0439C24.1736 11.9772 23.5144 13.8368 22.3317 15.3333H9.19099C8.00828 13.8319 7.34906 11.9674 7.34906 10.0439C7.34906 5.35317 11.1202 1.53579 15.7541 1.53579H15.7589H15.7686ZM4.29534 11.9281H6.02094C6.24875 13.1401 6.70439 14.298 7.34422 15.3382H7.22304C7.03885 15.353 6.84981 15.3481 6.62683 15.3481H6.61714C4.56678 15.3775 2.05594 15.1322 2.02201 13.8172C2.06564 12.4286 3.21927 11.933 4.30019 11.933H4.29049L4.29534 11.9281ZM2.01717 38.8166C2.03171 33.3212 2.05594 21.3538 2.0414 16.1675C3.21442 16.7661 4.79945 16.874 5.88037 16.8887L6.04517 44.4642H4.30504C3.04962 44.4642 2.02686 43.4387 2.02686 42.163V38.8117H2.01717V38.8166ZM22.5013 31.1671C22.5013 30.7452 22.8407 30.4017 23.2575 30.4017H28.3858C28.8027 30.4017 29.142 30.7452 29.142 31.1671C29.142 31.5891 28.8027 31.9326 28.3858 31.9326H23.2575C22.8407 31.9326 22.5013 31.5891 22.5013 31.1671ZM11.8472 12.6886L14.6974 9.80352L11.8472 6.9184C11.5516 6.61909 11.5516 6.13824 11.8472 5.83893C12.1429 5.53963 12.6179 5.53963 12.9136 5.83893L15.7638 8.72405L18.6139 5.83893C18.9096 5.53963 19.3846 5.53963 19.6803 5.83893C19.976 6.13824 19.976 6.61909 19.6803 6.9184L16.8301 9.80352L19.6803 12.6886C19.976 12.9879 19.976 13.4688 19.6803 13.7681C19.53 13.9202 19.341 13.9889 19.1423 13.9889C18.9435 13.9889 18.7545 13.9104 18.6042 13.7681L15.7541 10.883L12.9039 13.7681C12.7537 13.9202 12.5646 13.9889 12.3659 13.9889C12.1672 13.9889 11.9781 13.9104 11.8279 13.7681C11.5322 13.4688 11.5322 12.9879 11.8279 12.6886H11.8424H11.8472Z" fill="#FB7725"/>
</svg>
