<svg width="22" height="18" viewBox="0 0 22 18" fill="none" xmlns="http://www.w3.org/2000/svg">
<path d="M21.4775 13.3181L19.37 4.88625C19.2888 4.56159 19.1015 4.27338 18.8376 4.06749C18.5738 3.8616 18.2487 3.74984 17.9141 3.75H11.75V2.25C11.75 1.85218 11.592 1.47064 11.3107 1.18934C11.0294 0.908035 10.6478 0.75 10.25 0.75H6.5C6.10218 0.75 5.72064 0.908035 5.43934 1.18934C5.15804 1.47064 5 1.85218 5 2.25V3.75H4.08594C3.75128 3.74984 3.42619 3.8616 3.16237 4.06749C2.89855 4.27338 2.71115 4.56159 2.63 4.88625L0.5225 13.3181C0.507528 13.3776 0.499971 13.4387 0.5 13.5V16.5C0.5 16.8978 0.658035 17.2794 0.93934 17.5607C1.22064 17.842 1.60218 18 2 18H20C20.3978 18 20.7794 17.842 21.0607 17.5607C21.342 17.2794 21.5 16.8978 21.5 16.5V13.5C21.5 13.4387 21.4925 13.3776 21.4775 13.3181ZM6.5 2.25H10.25V3.75H6.5V2.25ZM4.08594 5.25H17.9141L19.7891 12.75H2.21094L4.08594 5.25ZM2 16.5V14.25H20V16.5H2ZM5 7.5C5 7.30109 5.07902 7.11032 5.21967 6.96967C5.36032 6.82902 5.55109 6.75 5.75 6.75H7.25C7.44891 6.75 7.63968 6.82902 7.78033 6.96967C7.92098 7.11032 8 7.30109 8 7.5C8 7.69891 7.92098 7.88968 7.78033 8.03033C7.63968 8.17098 7.44891 8.25 7.25 8.25H5.75C5.55109 8.25 5.36032 8.17098 5.21967 8.03033C5.07902 7.88968 5 7.69891 5 7.5ZM9.5 7.5C9.5 7.30109 9.57902 7.11032 9.71967 6.96967C9.86032 6.82902 10.0511 6.75 10.25 6.75H11.75C11.9489 6.75 12.1397 6.82902 12.2803 6.96967C12.421 7.11032 12.5 7.30109 12.5 7.5C12.5 7.69891 12.421 7.88968 12.2803 8.03033C12.1397 8.17098 11.9489 8.25 11.75 8.25H10.25C10.0511 8.25 9.86032 8.17098 9.71967 8.03033C9.57902 7.88968 9.5 7.69891 9.5 7.5ZM14 7.5C14 7.30109 14.079 7.11032 14.2197 6.96967C14.3603 6.82902 14.5511 6.75 14.75 6.75H16.25C16.4489 6.75 16.6397 6.82902 16.7803 6.96967C16.921 7.11032 17 7.30109 17 7.5C17 7.69891 16.921 7.88968 16.7803 8.03033C16.6397 8.17098 16.4489 8.25 16.25 8.25H14.75C14.5511 8.25 14.3603 8.17098 14.2197 8.03033C14.079 7.88968 14 7.69891 14 7.5ZM5 10.5C5 10.3011 5.07902 10.1103 5.21967 9.96967C5.36032 9.82902 5.55109 9.75 5.75 9.75H7.25C7.44891 9.75 7.63968 9.82902 7.78033 9.96967C7.92098 10.1103 8 10.3011 8 10.5C8 10.6989 7.92098 10.8897 7.78033 11.0303C7.63968 11.171 7.44891 11.25 7.25 11.25H5.75C5.55109 11.25 5.36032 11.171 5.21967 11.0303C5.07902 10.8897 5 10.6989 5 10.5ZM9.5 10.5C9.5 10.3011 9.57902 10.1103 9.71967 9.96967C9.86032 9.82902 10.0511 9.75 10.25 9.75H11.75C11.9489 9.75 12.1397 9.82902 12.2803 9.96967C12.421 10.1103 12.5 10.3011 12.5 10.5C12.5 10.6989 12.421 10.8897 12.2803 11.0303C12.1397 11.171 11.9489 11.25 11.75 11.25H10.25C10.0511 11.25 9.86032 11.171 9.71967 11.0303C9.57902 10.8897 9.5 10.6989 9.5 10.5ZM14 10.5C14 10.3011 14.079 10.1103 14.2197 9.96967C14.3603 9.82902 14.5511 9.75 14.75 9.75H16.25C16.4489 9.75 16.6397 9.82902 16.7803 9.96967C16.921 10.1103 17 10.3011 17 10.5C17 10.6989 16.921 10.8897 16.7803 11.0303C16.6397 11.171 16.4489 11.25 16.25 11.25H14.75C14.5511 11.25 14.3603 11.171 14.2197 11.0303C14.079 10.8897 14 10.6989 14 10.5Z" fill="white"/>
</svg>
